<svg  viewBox="0 0 24.613 22.973">
  <g id="Group_338" data-name="Group 338" transform="translate(-1598.693 -160.514)">
    <g id="menu" transform="translate(1598.693 160.514)">
      <path id="Path_78" data-name="Path 78" d="M0,24.461a2.461,2.461,0,0,0,2.461,2.461H22.152a2.461,2.461,0,1,0,0-4.923H2.461A2.461,2.461,0,0,0,0,24.461Z" transform="translate(0 -3.95)" fill="#fff"/>
      <path id="Path_79" data-name="Path 79" d="M0,13.461a2.461,2.461,0,0,0,2.461,2.461H22.152a2.461,2.461,0,1,0,0-4.923H2.461A2.461,2.461,0,0,0,0,13.461Z" transform="translate(0 -1.975)" fill="#fff"/>
      <path id="Path_80" data-name="Path 80" d="M2.461,0a2.461,2.461,0,0,0,0,4.923H22.152a2.461,2.461,0,1,0,0-4.923Z" fill="#fff"/>
    </g>
  </g>
</svg>
