<svg  viewBox="0 0 30.766 30.471">
  <g id="Group_464" data-name="Group 464" transform="translate(-1615.546 -787.414)">
    <g id="Path_35" data-name="Path 35" transform="translate(1615.546 787.415)" fill="none">
      <path d="M15.235,0h.3a15.235,15.235,0,0,1,0,30.47h-.3a15.235,15.235,0,0,1,0-30.47Z" stroke="none"/>
      <path d="M 15.2349739074707 2 C 11.69978332519531 2 8.376194000244141 3.376680374145508 5.876434326171875 5.876430511474609 C 3.376684188842773 8.376190185546875 2.000003814697266 11.69977951049805 2.000003814697266 15.23497009277344 C 2.000003814697266 18.77016067504883 3.376684188842773 22.09375 5.876434326171875 24.59350967407227 C 8.376194000244141 27.09325981140137 11.69978332519531 28.46994018554688 15.2349739074707 28.46994018554688 L 15.53117370605469 28.46994018554688 C 19.06636428833008 28.46994018554688 22.38995361328125 27.09325981140137 24.88971328735352 24.59350967407227 C 27.38946342468262 22.09375 28.76614379882812 18.77016067504883 28.76614379882812 15.23497009277344 C 28.76614379882812 11.69977951049805 27.38946342468262 8.376190185546875 24.88971328735352 5.876430511474609 C 22.38995361328125 3.376680374145508 19.06636428833008 2 15.53117370605469 2 L 15.2349739074707 2 M 15.2349739074707 0 L 15.53117370605469 0 C 23.94521331787109 0 30.76614379882812 6.820930480957031 30.76614379882812 15.23497009277344 C 30.76614379882812 23.64900970458984 23.94521331787109 30.46994018554688 15.53117370605469 30.46994018554688 L 15.2349739074707 30.46994018554688 C 6.820934295654297 30.46994018554688 3.814697265625e-06 23.64900970458984 3.814697265625e-06 15.23497009277344 C 3.814697265625e-06 6.820930480957031 6.820934295654297 0 15.2349739074707 0 Z" stroke="none" fill="#3e3e3e"/>
    </g>
    <line id="Line_18" data-name="Line 18" y2="12.535" transform="translate(1637.341 802.998) rotate(90)" fill="none" stroke="#3e3e3e" stroke-linecap="round" stroke-width="3"/>
  </g>
</svg>
