<svg  viewBox="0 0 17.402 16.699">
  <g id="favorites" transform="translate(-27.439 -28.6)">
    <g id="Group_385" data-name="Group 385" transform="translate(27.439 28.6)">
      <path id="Path_104" data-name="Path 104" d="M32.709,45.03a1.633,1.633,0,0,1-2.5-1.818l.48-2.8a2.345,2.345,0,0,0-.566-1.741l-2.035-1.984a1.633,1.633,0,0,1,.956-2.942l2.813-.409a2.345,2.345,0,0,0,1.481-1.076l1.258-2.549a1.633,1.633,0,0,1,3.093,0l1.258,2.549a2.345,2.345,0,0,0,1.481,1.076l2.813.409a1.633,1.633,0,0,1,.956,2.942l-2.035,1.984a2.345,2.345,0,0,0-.566,1.741l.48,2.8a1.633,1.633,0,0,1-2.5,1.818l-2.516-1.323a2.345,2.345,0,0,0-1.831,0ZM34.327,42a4.235,4.235,0,0,1,3.625,0L40.1,43.131l-.411-2.395a4.235,4.235,0,0,1,1.12-3.448l1.74-1.7-2.4-.349a4.235,4.235,0,0,1-2.933-2.131L36.14,30.933l-1.075,2.179a4.235,4.235,0,0,1-2.933,2.131l-2.4.349,1.74,1.7a4.235,4.235,0,0,1,1.12,3.448l-.411,2.395Z" transform="translate(-27.439 -28.6)" fill="#c1c1c1"/>
    </g>
  </g>
</svg>
