<svg viewBox="0 0 17.402 16.699">
  <g id="favorites" transform="translate(-27.439 -28.6)">
    <g id="Group_385" data-name="Group 385" transform="translate(27.439 28.6)">
      <path id="Path_104" data-name="Path 104" class="cls-1" d="M32.709,45.03a1.633,1.633,0,0,1-2.5-1.818l.48-2.8a2.345,2.345,0,0,0-.566-1.741l-2.035-1.984a1.633,1.633,0,0,1,.956-2.942l2.813-.409a2.345,2.345,0,0,0,1.481-1.076l1.258-2.549a1.633,1.633,0,0,1,3.093,0l1.258,2.549a2.345,2.345,0,0,0,1.481,1.076l2.813.409a1.633,1.633,0,0,1,.956,2.942l-2.035,1.984a2.345,2.345,0,0,0-.566,1.741l.48,2.8a1.633,1.633,0,0,1-2.5,1.818l-2.516-1.323a2.345,2.345,0,0,0-1.831,0Z" transform="translate(-27.439 -28.6)"/>
    </g>
  </g>
</svg>
