<svg  width="30.605" height="30.605" viewBox="0 0 30.605 30.605">
  <g id="Group_462" data-name="Group 462" transform="translate(-745.707 -1209.705)">
    <path id="attachment" d="M19.885,35.593h.1A15.33,15.33,0,0,0,30.9,31.343a15.049,15.049,0,0,0,4.692-10.71,15.3,15.3,0,1,0-15.708,14.96ZM12.2,18.288l5.78-5.474A6.341,6.341,0,0,1,22.5,11.08a6.213,6.213,0,0,1,4.42,1.972,6.044,6.044,0,0,1,1.768,4.522,6.352,6.352,0,0,1-1.972,4.42l-6.494,6.154a4.627,4.627,0,0,1-3.264,1.292,4.79,4.79,0,0,1-3.434-1.462,4.731,4.731,0,0,1,.17-6.7L19.919,15.4a3.046,3.046,0,0,1,2.244-.85,3.176,3.176,0,0,1,2.21.986,3.046,3.046,0,0,1,.85,2.244,3.176,3.176,0,0,1-.986,2.21L21.993,22.1a.986.986,0,0,1-1.36-1.428l2.278-2.142a1.221,1.221,0,0,0,.374-.816,1.306,1.306,0,0,0-.306-.85,1.221,1.221,0,0,0-.816-.374,1.306,1.306,0,0,0-.85.306l-6.256,5.916a2.766,2.766,0,0,0,3.808,4.012l6.494-6.154a4.395,4.395,0,0,0,1.36-3.06,4.447,4.447,0,0,0-1.19-3.128,4.395,4.395,0,0,0-3.06-1.36,4.447,4.447,0,0,0-3.128,1.19l-5.78,5.474a.975.975,0,0,1-1.394-.034A.965.965,0,0,1,12.2,18.288Z" transform="translate(740.716 1204.715)" fill="#008dd0"/>
  </g>
</svg>
