<svg  viewBox="0 0 153.645 45.28">
  <g id="Group_363" data-name="Group 363" transform="translate(-2572 -4139)">
    <g id="Group_19" data-name="Group 19" transform="translate(2572 4161.828)">
      <g id="Group_1" data-name="Group 1" transform="translate(47.728 0.126)">
        <path id="Path_1" data-name="Path 1" d="M163.21,73.1H152V84.467h3.046V81.39h6c1.319,0,2.167.659,2.167,1.162v1.915h3.109v-2.2a2.033,2.033,0,0,0-2.135-2.072c.879,0,1.884-1.1,2.135-2.229a5.912,5.912,0,0,0,0-2.575C166.036,74.073,165.219,73.1,163.21,73.1ZM161.043,79h-6V75.235h6c1.884,0,2.167.942,2.167,1.79C163.21,78.124,162.927,79,161.043,79Z" transform="translate(-152 -73.1)" fill="#1f1e1a" fill-rule="evenodd"/>
      </g>
      <g id="Group_2" data-name="Group 2" transform="translate(63.957)">
        <path id="Path_2" data-name="Path 2" d="M210.973,77.536v1.79h4.741c0,2.669-1.256,2.669-4.522,2.669-2.983,0-4.522,0-4.522-2.669v-1.79c0-2.575,1.727-2.575,4.522-2.575s4.333,0,4.239,1.256h3.109a5.942,5.942,0,0,0-.094-.973c-.314-2.1-2.763-2.543-7.253-2.543-4.522,0-6.877.471-7.285,2.543a23.473,23.473,0,0,0,0,6.468c.377,2.135,2.763,2.606,7.285,2.606s6.814-.471,7.191-2.606a28.67,28.67,0,0,0,.157-4.176Z" transform="translate(-203.683 -72.7)" fill="#1f1e1a" fill-rule="evenodd"/>
      </g>
      <g id="Group_3" data-name="Group 3" transform="translate(32.845 0.126)">
        <path id="Path_3" data-name="Path 3" d="M104.6,74.544V82.96a1.435,1.435,0,0,0,1.444,1.507h11.241v-2.2h-9.828V79.6h9.232V77.81h-9.232V75.235h9.828V73.1H106.044A1.415,1.415,0,0,0,104.6,74.544Z" transform="translate(-104.6 -73.1)" fill="#1f1e1a" fill-rule="evenodd"/>
      </g>
      <g id="Group_4" data-name="Group 4" transform="translate(14.852 0.126)">
        <path id="Path_4" data-name="Path 4" d="M60.237,82.269l-7.6-9.169H47.3V84.467h2.889V75.235l7.6,9.232h5.338V73.1H60.237Z" transform="translate(-47.3 -73.1)" fill="#1f1e1a" fill-rule="evenodd"/>
      </g>
      <g id="Group_5" data-name="Group 5" transform="translate(0 0.126)">
        <path id="Path_5" data-name="Path 5" d="M0,74.544V82.96a1.435,1.435,0,0,0,1.444,1.507H12.686v-2.2H2.857V79.6h9.232V77.81H2.857V75.235h9.828V73.1H1.444A1.415,1.415,0,0,0,0,74.544Z" transform="translate(0 -73.1)" fill="#1f1e1a" fill-rule="evenodd"/>
      </g>
      <g id="Group_6" data-name="Group 6" transform="translate(105.819 0.126)">
        <path id="Path_6" data-name="Path 6" d="M347.519,73.1H337V84.467h3.046V81.39h6.72c3.046,0,4.176-1.79,4.176-4.27C350.91,75.267,350.345,73.1,347.519,73.1ZM345.635,79h-5.589V75.235h5.589c1.884,0,2.167.942,2.167,1.79C347.8,78.124,347.519,79,345.635,79Z" transform="translate(-337 -73.1)" fill="#1f1e1a" fill-rule="evenodd"/>
      </g>
      <g id="Group_7" data-name="Group 7" transform="translate(121.77 0.126)">
        <path id="Path_7" data-name="Path 7" d="M399.01,73.1H387.8V84.467h3.046V81.39h6c1.319,0,2.167.659,2.167,1.162v1.915h3.109v-2.2a2.033,2.033,0,0,0-2.135-2.072c.879,0,1.884-1.1,2.135-2.229a5.912,5.912,0,0,0,0-2.575C401.836,74.073,401.019,73.1,399.01,73.1ZM396.843,79h-6V75.235h6c1.884,0,2.167.942,2.167,1.79C399.01,78.124,398.759,79,396.843,79Z" transform="translate(-387.8 -73.1)" fill="#1f1e1a" fill-rule="evenodd"/>
      </g>
      <g id="Group_8" data-name="Group 8" transform="translate(98.032 5.997)">
        <rect id="Rectangle_1" data-name="Rectangle 1" width="5.621" height="2.386" fill="#1f1e1a"/>
      </g>
      <g id="Group_9" data-name="Group 9" transform="translate(80.481)">
        <path id="Path_8" data-name="Path 8" d="M264.187,72.7c-4.741,0-7.191.471-7.63,2.543a21.275,21.275,0,0,0,0,6.468c.345,2.167,2.92,2.606,7.63,2.606s7.159-.44,7.536-2.606a23.487,23.487,0,0,0,0-6.468C271.409,73.14,268.929,72.7,264.187,72.7Zm4.741,6.625c-.157,2.669-1.444,2.669-4.741,2.669s-4.522,0-4.741-2.669a8.529,8.529,0,0,1,0-1.79c.22-2.575,1.413-2.575,4.741-2.575,3.36,0,4.584,0,4.741,2.575A17,17,0,0,1,268.929,79.325Z" transform="translate(-256.309 -72.7)" fill="#1f1e1a" fill-rule="evenodd"/>
      </g>
      <g id="Group_10" data-name="Group 10" transform="translate(138.007)">
        <path id="Path_9" data-name="Path 9" d="M454.923,75.243c-.345-2.1-2.795-2.543-7.536-2.543s-7.191.471-7.63,2.543a21.272,21.272,0,0,0,0,6.468c.345,2.167,2.92,2.606,7.63,2.606s7.159-.44,7.536-2.606A23.489,23.489,0,0,0,454.923,75.243ZM452.1,79.325c-.157,2.669-1.444,2.669-4.741,2.669s-4.522,0-4.741-2.669a8.52,8.52,0,0,1,0-1.79c.22-2.575,1.413-2.575,4.741-2.575,3.36,0,4.584,0,4.741,2.575A8.529,8.529,0,0,1,452.1,79.325Z" transform="translate(-439.509 -72.7)" fill="#1f1e1a" fill-rule="evenodd"/>
      </g>
    </g>
    <g id="Group_11" data-name="Group 11" transform="translate(2645.916 4145.625)">
      <path id="Path_10" data-name="Path 10" d="M247.112,21.1c-4.459,0-5.589,6.249-11.712,9.765,9.64-.722,20.033-2.92,27.255-9.765Z" transform="translate(-235.4 -21.1)" fill="#00369a" fill-rule="evenodd"/>
    </g>
    <g id="Group_12" data-name="Group 12" transform="translate(2625.192 4139.094)">
      <path id="Path_11" data-name="Path 11" d="M195.431.3c-9.546.722-18.4,2.575-26.031,9.828h13.314C188.931,10.128,189.716,3.848,195.431.3Z" transform="translate(-169.4 -0.3)" fill="#00369a" fill-rule="evenodd"/>
    </g>
    <g id="Group_13" data-name="Group 13" transform="translate(2619.697 4139)">
      <path id="Path_12" data-name="Path 12" d="M189.549,0C180,0,179.344,11.618,171.085,11.587h-9.42c-3.548,0-8.07,1.382-9.765,4.8h19.28c10.833,0,11.963-11.618,18.338-11.587H202.2c3.8,0,6-1.915,7.913-4.8H189.549Z" transform="translate(-151.9 0)" fill="#008dd0" fill-rule="evenodd"/>
    </g>
    <g id="Group_20" data-name="Group 20" transform="translate(2677.913 4176.769)">
      <g id="Group_15" data-name="Group 15" transform="translate(0 0)">
        <path id="Path_13" data-name="Path 13" d="M332.6,140.511a3.151,3.151,0,0,1-2.474-1.013,3.842,3.842,0,0,1-.924-2.712,3.96,3.96,0,0,1,.954-2.772A3.3,3.3,0,0,1,332.717,133a3.35,3.35,0,0,1,2.146.656,2.456,2.456,0,0,1,.984,1.759h-1.49a1.154,1.154,0,0,0-.537-.8,1.619,1.619,0,0,0-1.013-.358,1.825,1.825,0,0,0-1.52.656,2.9,2.9,0,0,0-.537,1.848,2.789,2.789,0,0,0,.537,1.848,1.916,1.916,0,0,0,1.55.626h0a1.562,1.562,0,0,0,1.341-.656,2.549,2.549,0,0,0,.388-.864H332.9v-1.222h2.981v3.845h-.984l-.149-.924-.089.119a2.541,2.541,0,0,1-2.057.984Z" transform="translate(-329.2 -133)" fill="#7e7e7e"/>
        <path id="Path_14" data-name="Path 14" d="M357,140.794V133.7h5.216v1.252H358.49v1.52h3.488v1.222H358.49v1.848h3.9v1.252H357Z" transform="translate(-348.714 -133.491)" fill="#7e7e7e"/>
        <path id="Path_15" data-name="Path 15" d="M379.824,139.5a3.793,3.793,0,0,1-.924-2.712,3.947,3.947,0,0,1,.924-2.772,3.173,3.173,0,0,1,2.5-1.013,3.215,3.215,0,0,1,2.5,1.013,3.947,3.947,0,0,1,.924,2.772,3.842,3.842,0,0,1-.924,2.712,3.215,3.215,0,0,1-2.5,1.013A3.132,3.132,0,0,1,379.824,139.5Zm3.9-.894a2.994,2.994,0,0,0,.507-1.818,3.09,3.09,0,0,0-.507-1.848,1.653,1.653,0,0,0-1.431-.656,1.727,1.727,0,0,0-1.431.656,3.09,3.09,0,0,0-.507,1.848,2.993,2.993,0,0,0,.507,1.818,1.653,1.653,0,0,0,1.431.656A1.731,1.731,0,0,0,383.729,138.6Z" transform="translate(-364.086 -133)" fill="#7e7e7e"/>
        <path id="Path_16" data-name="Path 16" d="M406.6,133.7h3.577a2.413,2.413,0,0,1,1.639.537,1.79,1.79,0,0,1,.626,1.431,1.678,1.678,0,0,1-.686,1.49,1.821,1.821,0,0,1-.417.209.6.6,0,0,1,.238.119,1.3,1.3,0,0,1,.626,1.222l.03,1.163a1.945,1.945,0,0,0,.06.507.462.462,0,0,0,.238.238v.179h-1.639a2.213,2.213,0,0,1-.089-.477,6.292,6.292,0,0,1-.06-.775v-.656a.816.816,0,0,0-.268-.686,1.412,1.412,0,0,0-.894-.209h-1.49v2.8H406.6Zm1.49,3.1h1.729a1.36,1.36,0,0,0,.864-.238.893.893,0,0,0,.3-.715.967.967,0,0,0-.268-.715,1.233,1.233,0,0,0-.8-.238H408.12V136.8Z" transform="translate(-383.529 -133.491)" fill="#7e7e7e"/>
        <path id="Path_17" data-name="Path 17" d="M433.7,140.511a3.151,3.151,0,0,1-2.474-1.013,3.842,3.842,0,0,1-.924-2.712,3.961,3.961,0,0,1,.954-2.772A3.3,3.3,0,0,1,433.817,133a3.35,3.35,0,0,1,2.146.656,2.456,2.456,0,0,1,.984,1.759h-1.49a1.154,1.154,0,0,0-.537-.8,1.619,1.619,0,0,0-1.013-.358,1.825,1.825,0,0,0-1.52.656,2.9,2.9,0,0,0-.537,1.848,2.79,2.79,0,0,0,.537,1.848,1.916,1.916,0,0,0,1.55.626h0a1.562,1.562,0,0,0,1.341-.656,2.549,2.549,0,0,0,.387-.864H434v-1.222h2.981v3.845h-.984l-.149-.924-.089.119a2.541,2.541,0,0,1-2.057.984Z" transform="translate(-400.165 -133)" fill="#7e7e7e"/>
        <path id="Path_18" data-name="Path 18" d="M457.7,133.7h1.49v7.094H457.7Z" transform="translate(-419.397 -133.491)" fill="#7e7e7e"/>
        <path id="Path_19" data-name="Path 19" d="M468.8,133.7h1.729l2.5,7.094h-1.55l-.477-1.431h-2.683l-.477,1.431H466.3Zm-.089,4.441h1.878l-.954-2.862h0Z" transform="translate(-425.434 -133.491)" fill="#7e7e7e"/>
      </g>
    </g>
  </g>
</svg>
