<svg  viewBox="0 0 16.145 17.939">
  <path id="Subtraction_2" data-name="Subtraction 2" d="M4.879-3969.06H0v-.9a8.081,8.081,0,0,1,4.82-7.382,5.348,5.348,0,0,1-2.129-4.279A5.388,5.388,0,0,1,8.073-3987a5.388,5.388,0,0,1,5.382,5.382,5.347,5.347,0,0,1-2.129,4.279,8.082,8.082,0,0,1,4.82,7.382v.9H11.385v-1.793h2.9a6.309,6.309,0,0,0-6.215-5.382,6.309,6.309,0,0,0-6.215,5.382H4.879v1.793Zm3.194-16.146a3.592,3.592,0,0,0-3.588,3.587,3.592,3.592,0,0,0,3.588,3.588,3.592,3.592,0,0,0,3.588-3.588A3.592,3.592,0,0,0,8.073-3985.206Z" transform="translate(0 3987)" fill="#fff"/>
</svg>
