<svg viewBox="0 0 26.998 30">
  <path id="Subtraction_1" data-name="Subtraction 1" d="M8.159-3957H0v-1.5a13.513,13.513,0,0,1,8.061-12.344A8.943,8.943,0,0,1,4.5-3978a9.01,9.01,0,0,1,9-9,9.01,9.01,0,0,1,9,9,8.942,8.942,0,0,1-3.561,7.154A13.515,13.515,0,0,1,27-3958.5v1.5H19.039v-3h4.854a10.55,10.55,0,0,0-10.393-9,10.55,10.55,0,0,0-10.393,9H8.159v3Zm5.341-27a6.006,6.006,0,0,0-6,6,6.006,6.006,0,0,0,6,6,6.006,6.006,0,0,0,6-6A6.006,6.006,0,0,0,13.5-3984Z" transform="translate(0 3987)" fill="#fff"/>
</svg>
